<?xml version="1.0" encoding="utf-8"?>
<!-- Generator: Adobe Illustrator 26.3.1, SVG Export Plug-In . SVG Version: 6.00 Build 0)  -->
<svg version="1.1" xmlns="http://www.w3.org/2000/svg" xmlns:xlink="http://www.w3.org/1999/xlink" x="0px" y="0px"
	 viewBox="0 0 128 128" style="enable-background:new 0 0 128 128;" xml:space="preserve">
<style type="text/css">
	.st0{display:none;}
	.st1{display:inline;fill:none;stroke:#000000;stroke-width:8;stroke-miterlimit:10;}
	.st2{fill:none;stroke:#FFFFFF;stroke-width:8;stroke-miterlimit:10;}
</style>
<g id="Black_icon" class="st0">
	<path class="st1" d="M112.8,93.85l-97.6-0.26c-0.63,0-1.15-0.52-1.15-1.15V35.3c0-0.64,0.52-1.15,1.15-1.15l97.6,0.26
		c0.63,0,1.15,0.52,1.15,1.15V92.7C113.95,93.33,113.43,93.85,112.8,93.85z"/>
	<line class="st1" x1="14.05" y1="34.15" x2="64" y2="64"/>
	<line class="st1" x1="113.95" y1="34.15" x2="64" y2="64"/>
	<circle class="st1" cx="64" cy="61" r="4.04"/>
</g>
<g id="White_Icon">
	<path class="st2" d="M112.8,93.85l-97.6-0.26c-0.63,0-1.15-0.52-1.15-1.15V35.3c0-0.64,0.52-1.15,1.15-1.15l97.6,0.26
		c0.63,0,1.15,0.52,1.15,1.15V92.7C113.95,93.33,113.43,93.85,112.8,93.85z"/>
	<line class="st2" x1="14.05" y1="34.15" x2="64" y2="64"/>
	<line class="st2" x1="113.95" y1="34.15" x2="64" y2="64"/>
	<circle class="st2" cx="64" cy="61" r="4.04"/>
</g>
</svg>
